<?xml version="1.0" encoding="UTF-8" standalone="no"?>
<!DOCTYPE svg PUBLIC "-//W3C//DTD SVG 1.1//EN" "http://www.w3.org/Graphics/SVG/1.1/DTD/svg11.dtd">
<svg width="100%" height="100%" viewBox="0 0 606 282" version="1.1" xmlns="http://www.w3.org/2000/svg" xmlns:xlink="http://www.w3.org/1999/xlink" xml:space="preserve" xmlns:serif="http://www.serif.com/" style="fill-rule:evenodd;clip-rule:evenodd;stroke-linejoin:round;stroke-miterlimit:2;">
    <g transform="matrix(1,0,0,1,-1405.03,-263.647)">
        <g transform="matrix(1,0,0,1,-0.333333,0)">
            <g transform="matrix(1.2535,0,0,1.2535,-579.167,-87.8546)">
                <g transform="matrix(6.75105,0,0,6.75105,-8548.37,-2073.52)">
                    <rect x="1500.74" y="375.085" width="50.1" height="6.9" style="fill:white;fill-rule:nonzero;"/>
                </g>
                <g transform="matrix(5.0936,0,0,5.0936,-7977.98,-1338.86)">
                    <path d="M1958.35,317.903C1961.05,317.903 1963.39,318.328 1965.37,319.178C1967.36,320.028 1968.89,321.236 1969.97,322.803C1971.06,324.37 1971.6,326.186 1971.6,328.253C1971.6,330.186 1971.11,331.936 1970.15,333.503C1969.18,335.07 1967.96,336.453 1966.5,337.653C1965.03,338.853 1963.01,340.32 1960.45,342.053C1959.01,342.986 1957.85,343.786 1956.95,344.453L1972,344.453L1972,352.903L1943.5,352.903L1943.5,350.503C1943.5,348.736 1943.9,347.161 1944.72,345.778C1945.54,344.395 1946.73,343.003 1948.3,341.603C1949.9,340.203 1952.2,338.303 1955.2,335.903C1957.6,334.003 1959.28,332.553 1960.25,331.553C1961.21,330.553 1961.7,329.57 1961.7,328.603C1961.7,327.57 1961.34,326.703 1960.62,326.003C1959.9,325.303 1958.83,324.953 1957.4,324.953C1955.9,324.953 1954.71,325.386 1953.85,326.253C1952.98,327.12 1952.55,328.253 1952.55,329.653L1952.55,330.653L1943.65,330.653C1943.61,330.386 1943.6,330.02 1943.6,329.553C1943.6,325.953 1944.86,323.111 1947.37,321.028C1949.89,318.945 1953.55,317.903 1958.35,317.903Z" style="fill:white;fill-rule:nonzero;"/>
                </g>
            </g>
        </g>
    </g>
</svg>
